<svg width="174" height="166" viewBox="0 0 174 166" fill="none" xmlns="http://www.w3.org/2000/svg">
<g clip-path="url(#clip0_301_2)">
<path d="M28.106 77.04C29.973 67.392 37.714 59.655 47.369 57.787C48.823 57.506 49.872 56.233 49.872 54.752C49.872 53.271 48.822 51.999 47.368 51.718C37.713 49.85 29.972 42.113 28.105 32.465C27.824 31.011 26.551 29.962 25.071 29.962C23.591 29.962 22.318 31.012 22.037 32.465C20.169 42.114 12.432 49.851 2.784 51.718C1.331 51.999 0.279999 53.272 0.279999 54.752C0.279999 56.232 1.33 57.505 2.783 57.787C12.432 59.654 20.169 67.391 22.037 77.04C22.318 78.494 23.591 79.543 25.071 79.543C26.552 79.544 27.824 78.494 28.106 77.04ZM12.461 54.753C17.793 51.889 22.208 47.474 25.072 42.142C27.937 47.475 32.354 51.889 37.689 54.753C32.353 57.618 27.937 62.032 25.072 67.365C22.208 62.032 17.793 57.617 12.461 54.753Z" fill="#3E6B99"/>
<path d="M171.216 28.607C165.067 27.417 160.137 22.49 158.948 16.346C158.667 14.892 157.394 13.843 155.914 13.843C154.434 13.843 153.161 14.893 152.88 16.346C151.691 22.49 146.763 27.418 140.619 28.607C139.166 28.888 138.116 30.161 138.116 31.641C138.116 33.122 139.166 34.394 140.619 34.675C146.764 35.864 151.691 40.792 152.88 46.936C153.161 48.39 154.434 49.439 155.914 49.439C157.394 49.439 158.667 48.389 158.948 46.936C160.137 40.792 165.067 35.865 171.216 34.675C172.669 34.394 173.719 33.121 173.719 31.641C173.719 30.16 172.669 28.888 171.216 28.607ZM155.94 38.192C154.262 35.559 152.033 33.325 149.403 31.641C152.032 29.957 154.262 27.723 155.94 25.09C157.637 27.71 159.883 29.951 162.508 31.641C159.883 33.331 157.636 35.572 155.94 38.192Z" fill="#3E6B99"/>
<path d="M53.823 147.067C48.626 146.061 44.46 141.898 43.456 136.706C43.175 135.252 41.902 134.203 40.421 134.203C38.941 134.203 37.668 135.253 37.387 136.706C36.382 141.898 32.218 146.062 27.025 147.067C25.572 147.348 24.522 148.621 24.522 150.101C24.522 151.582 25.572 152.854 27.026 153.135C32.218 154.139 36.382 158.303 37.387 163.496C37.668 164.95 38.941 165.999 40.421 165.999C41.902 165.999 43.174 164.949 43.456 163.496C44.46 158.304 48.627 154.14 53.823 153.135C55.277 152.854 56.327 151.581 56.327 150.101C56.326 148.621 55.276 147.348 53.823 147.067ZM40.447 155.085C39.112 153.129 37.426 151.44 35.474 150.101C37.426 148.761 39.111 147.072 40.447 145.116C41.796 147.063 43.493 148.757 45.445 150.101C43.493 151.445 41.796 153.138 40.447 155.085Z" fill="#3E6B99"/>
<path d="M157.582 65.094C155.772 63.284 152.836 63.284 151.026 65.094L78.917 137.204C77.106 139.015 77.106 141.95 78.917 143.761L91.725 156.569C92.63 157.474 93.817 157.926 95.003 157.926C96.19 157.926 97.376 157.473 98.281 156.569L123.696 131.154L133.226 140.684C134.131 141.589 135.318 142.041 136.504 142.041C137.69 142.041 138.877 141.588 139.782 140.684L143.865 136.601L161.928 154.664C162.833 155.569 164.02 156.022 165.206 156.022C166.392 156.022 167.579 155.569 168.484 154.664C170.294 152.853 170.294 149.918 168.484 148.107L150.421 130.044L154.504 125.961C155.374 125.091 155.862 123.912 155.862 122.683C155.862 121.454 155.374 120.275 154.504 119.405L144.974 109.875L170.389 84.46C172.2 82.649 172.2 79.714 170.389 77.903L157.582 65.094ZM144.671 122.683L140.589 126.765L140.588 126.766L140.587 126.768L136.505 130.85L130.253 124.598L138.42 116.431L144.671 122.683ZM135.141 106.596L120.418 121.319L120.415 121.322L95.002 146.735L88.75 140.483L154.303 74.93L160.555 81.182L135.141 106.596Z" fill="#3E6B99"/>
<path d="M37.947 89.678C36.137 87.868 33.201 87.868 31.391 89.678C29.58 91.489 29.58 94.424 31.391 96.235L65.344 130.188C66.249 131.093 67.435 131.546 68.622 131.546C69.808 131.546 70.995 131.093 71.9 130.188C73.711 128.377 73.711 125.442 71.9 123.631L37.947 89.678Z" fill="#5BACC2"/>
<path d="M49.921 85.922L63.879 99.88C64.784 100.785 65.97 101.238 67.157 101.238C68.343 101.238 69.53 100.785 70.435 99.88C72.246 98.069 72.246 95.134 70.435 93.323L56.477 79.365C54.667 77.555 51.731 77.555 49.921 79.365C48.111 81.176 48.111 84.111 49.921 85.922Z" fill="#5BACC2"/>
<path d="M78.89 101.778C77.08 99.968 74.144 99.967 72.334 101.777C70.524 103.587 70.523 106.523 72.334 108.333L78.145 114.145C79.05 115.05 80.237 115.503 81.423 115.503C82.609 115.503 83.796 115.05 84.701 114.146C86.511 112.336 86.512 109.4 84.701 107.59L78.89 101.778Z" fill="#5BACC2"/>
<path d="M91.439 92.039C93.25 90.228 93.25 87.293 91.439 85.482L60.508 54.551C58.698 52.741 55.762 52.741 53.952 54.551C52.141 56.362 52.141 59.297 53.952 61.108L84.883 92.039C85.788 92.944 86.975 93.396 88.161 93.396C89.347 93.396 90.533 92.944 91.439 92.039Z" fill="#5BACC2"/>
<path d="M109.563 87.876C110.468 88.781 111.654 89.234 112.841 89.234C114.027 89.234 115.214 88.781 116.119 87.876C117.93 86.065 117.93 83.13 116.119 81.319L58.388 23.588C56.578 21.778 53.643 21.778 51.832 23.588C50.021 25.399 50.021 28.334 51.832 30.145L109.563 87.876Z" fill="#5BACC2"/>
<path d="M88.326 37.795C89.231 38.7 90.418 39.153 91.604 39.153C92.79 39.153 93.977 38.7 94.882 37.795C96.693 35.984 96.693 33.049 94.882 31.238L83.068 19.424C81.258 17.614 78.322 17.614 76.512 19.424C74.701 21.235 74.701 24.17 76.512 25.981L88.326 37.795Z" fill="#5BACC2"/>
<path d="M111.402 54.314C109.591 56.125 109.591 59.06 111.402 60.871L123.216 72.685C124.121 73.59 125.308 74.043 126.494 74.043C127.68 74.043 128.867 73.59 129.772 72.685C131.583 70.874 131.583 67.939 129.772 66.128L117.958 54.314C116.148 52.505 113.212 52.505 111.402 54.314Z" fill="#5BACC2"/>
<path d="M132.213 52.839C133.118 53.744 134.305 54.197 135.491 54.197C136.677 54.197 137.864 53.744 138.769 52.839C140.58 51.028 140.58 48.093 138.769 46.282L94.348 1.86099C92.538 0.0509943 89.602 0.0509943 87.792 1.86099C85.981 3.67199 85.981 6.607 87.792 8.418L132.213 52.839Z" fill="#5BACC2"/>
</g>
<defs>
<clipPath id="clip0_301_2">
<rect width="174" height="166" fill="white"/>
</clipPath>
</defs>
</svg>
